<svg version="1.2" xmlns="http://www.w3.org/2000/svg" viewBox="0 0 715 106" width="715" height="106"><style>.a{fill:#fff}</style><path fill-rule="evenodd" class="a" d="m0 0.8h19.2q0.1 0 0.9 4.6 2.3 13.5 2.3 14.2h-19.2q-0.2 0-0.8-4.6-1.6-8.9-2.4-14.2zm53 0h17.5q0.3 0 3.9 11.4 3.3 9.8 18.3 54.9h0.1q0.4-3 11.4-66.3h0.2 19.2 0.2q-13.7 79.6-15 86.7l-3.2 18.4-0.1 0.1h-19.4q-0.2 0-6.1-18.3-16.9-50.5-18.3-55-0.1 0-5.4 16l-19.3 57.3h-19.2q-0.2 0-1.4-8-0.3-1.2-9.5-56.2h0.1 19.1q0.3 0 1.4 7.4 2.3 13.2 3 17.8h0.2l20.1-60.1q0.5-1 2.2-6.1zm87.9 0h57.1q0.2 0 0.2 0.2v19.2q0 0.2-0.2 0.2h-57.1q-0.1 0-0.1-0.2v-19.2q0-0.2 0.1-0.2zm0 38.6h57.1q0.2 0 0.2 0.2v18.9q0 0.2-0.2 0.2h-37.3v27.6h37.3q0.2 0.1 0.2 0.1v19.5q0 0.1-0.2 0.1h-57.1q-0.1 0-0.1-0.1v-66.3q0-0.2 0.1-0.2zm71.7-38.6h18.5q18.2 0 26 4.6 2.3 1.2 5 3.6 8.5 7.5 8.5 19 0 12.3-10.7 20 3.4 1.8 6 3.5 12.3 8.4 12.3 23.9 0 13.8-11 23.6-5.8 4.6-12.5 5.8-5.3 1.2-11.8 1.2h-30.3q-0.1 0-0.1-0.1v-63.8q0-0.1 0.1-0.1h24.9q10 0 12.8-6.8 0.9-2 0.9-4.6 0-6.3-5.5-9.2-3.2-1.5-7.5-1.5h-25.6q-0.1 0-0.1-0.1v-18.8q0-0.2 0.1-0.2zm22.4 59.1h-2.5v27h5.4q14.1 0 17.7-4.4 3-3 3-7.8 0-8.5-7.7-12.4-4.7-2.4-15.9-2.4zm110-59q16.9 0 30.3 7.9 3.7 2.3 8.2 6.3 2.9 2.7 4.7 4.7-0.1 0-13.4 13.2-12.8-13.4-29.7-13.4-18.7 0-29.6 15.6-5 8.1-5 17.5v0.8q0 14.2 10.5 24.4 10.3 9.9 25.4 9.9 19.6 0 27.4-17.2h-28.8q-0.2 0-0.2-0.1v-17.7q0.1 0 0.2 0h50.2q0.1 3.5 0.1 4.9 0 13.7-8.6 27.1-14.3 21.2-41.2 21.2-23.1 0-38.5-14.9-4.9-5.1-7.1-8.8-8.5-13.8-8.5-28.3v-2q0-18.5 12.9-33.5 15.7-17.6 40.7-17.6zm65.1-0.2h22.5q18.8 0 26.1 4.4 8.1 4.4 12.2 14.8 1.7 5.5 1.7 10.7v1.3q0 16.8-14.5 24.8-2.6 1.4-5.5 2.5v0.1l24.9 46.6-0.2 0.1h-21.7q-0.3-0.3-5.8-10.9-0.5-0.7-17.9-33.6h-1.9v44.4q0 0.1-0.1 0.1h-19.8q-0.2 0-0.2-0.1v-63.9q0-0.2 0.2-0.2h21.8q11.9 0 14.7-1.1 3.5-1.1 5.1-3.6 1.4-2.6 1.4-5.6v-0.9q0-5.7-5.5-8.8-3.5-1.5-9.4-1.5-12.2-0.1-20.1-0.1h-8q-0.2 0-0.2-0.1v-19.3q0-0.1 0.2-0.1zm134.2 0q25.4 0 42.1 21.8 9.8 13.5 9.8 31.2 0 27.4-23.5 44-4.4 2.9-8.9 4.8-9.2 3.5-19.5 3.5-28.5 0-44.7-25-7.6-12.6-7.6-27.6 0-20 13.3-35.4 3.7-3.9 6.6-6.1 14.7-11.2 32.4-11.2zm-33.1 52.3v1.3q0 17.9 15 27.9 8.2 5.3 18.2 5.3 17 0 27.5-15.3 5.2-8.3 5.2-18.7 0-16.8-13.3-27.5-8.5-6.6-19.8-6.6-17.1 0-27.3 14.7-5.5 8.5-5.5 18.9zm151.3-52.3q25.4 0 42.1 21.8 9.8 13.5 9.8 31.2 0 27.4-23.5 44-4.4 2.9-8.9 4.8-9.2 3.5-19.5 3.5-28.4 0-44.7-25-7.6-12.6-7.6-27.6 0-20 13.3-35.4 3.7-3.9 6.6-6.1 14.7-11.2 32.4-11.2zm-33.1 52.3v1.3q0 17.9 15.1 27.9 8.2 5.3 18.1 5.3 17 0 27.5-15.3 5.2-8.3 5.2-18.7 0-16.8-13.3-27.5-8.5-6.6-19.7-6.6-17.2 0-27.4 14.7-5.5 8.5-5.5 18.9z"/></svg>